<?xml version="1.0" encoding="UTF-8"?>
<svg version="1.1" xmlns="http://www.w3.org/2000/svg" width="96" height="264">
<path d="M0 0 C1.32 0 2.64 0 4 0 C4 0.66 4 1.32 4 2 C4.99 2 5.98 2 7 2 C7 1.34 7 0.68 7 0 C8.32 0 9.64 0 11 0 C11 0.66 11 1.32 11 2 C11.99 2 12.98 2 14 2 C14 1.34 14 0.68 14 0 C15.32 0 16.64 0 18 0 C18 0.66 18 1.32 18 2 C18.99 2 19.98 2 21 2 C21 1.34 21 0.68 21 0 C22.65 0 24.3 0 26 0 C26 0.66 26 1.32 26 2 C26.99 2 27.98 2 29 2 C29 5.63 29 9.26 29 13 C29.66 13 30.32 13 31 13 C31 16.3 31 19.6 31 23 C30.34 23 29.68 23 29 23 C29 24.98 29 26.96 29 29 C29.66 29 30.32 29 31 29 C31 32.3 31 35.6 31 39 C30.34 39 29.68 39 29 39 C29.13816959 42.64616671 29.28681534 46.29183074 29.4375 49.9375 C29.47681641 50.97841797 29.51613281 52.01933594 29.55664062 53.09179688 C29.59853516 54.08115234 29.64042969 55.07050781 29.68359375 56.08984375 C29.73858032 57.46450806 29.73858032 57.46450806 29.79467773 58.86694336 C29.77003864 60.9820728 29.77003864 60.9820728 31 62 C31.07226502 63.85287502 31.0838122 65.70833878 31.0625 67.5625 C31.05347656 68.57441406 31.04445312 69.58632812 31.03515625 70.62890625 C31.02355469 71.41136719 31.01195312 72.19382812 31 73 C30.34 73 29.68 73 29 73 C29 86.86 29 100.72 29 115 C36.26 115 43.52 115 51 115 C51 123.91 51 132.82 51 142 C49.02 142 47.04 142 45 142 C45 151.24 45 160.48 45 170 C43.35 170 41.7 170 40 170 C40 171.32 40 172.64 40 174 C40.66 174 41.32 174 42 174 C42 176.31 42 178.62 42 181 C43.02480469 180.96519531 44.04960938 180.93039063 45.10546875 180.89453125 C46.46612936 180.86637965 47.8268078 180.83908096 49.1875 180.8125 C49.86103516 180.78736328 50.53457031 180.76222656 51.22851562 180.73632812 C55.71439691 180.67068108 58.50751128 181.14025346 62 184 C65.31922555 188.05844172 65.45892389 191.94591666 65.375 197 C65.38660156 197.69867188 65.39820312 198.39734375 65.41015625 199.1171875 C65.38490923 203.5774947 64.8307791 206.51596419 62 210 C58.40852511 212.80269302 54.09314872 212.2247543 49.75 212.125 C49.00492187 212.11597656 48.25984375 212.10695312 47.4921875 212.09765625 C45.66131941 212.07418358 43.83061762 212.03831525 42 212 C42 213.98 42 215.96 42 218 C36.72 218.33 31.44 218.66 26 219 C26.66 219.99 27.32 220.98 28 222 C28.24050903 223.95524597 28.24050903 223.95524597 28.22705078 226.19604492 C28.22689972 227.03668991 28.22674866 227.8773349 28.22659302 228.74345398 C28.21627045 229.64666885 28.20594788 230.54988373 28.1953125 231.48046875 C28.1924826 232.40845779 28.18965271 233.33644684 28.18673706 234.29255676 C28.17553836 237.25766879 28.15043435 240.22247921 28.125 243.1875 C28.1149698 245.19726126 28.10584402 247.20702726 28.09765625 249.21679688 C28.07730126 254.14474105 28.038152 259.07203275 28 264 C18.1 264 8.2 264 -2 264 C-2 259.38 -2 254.76 -2 250 C-3.98 250 -5.96 250 -8 250 C-8 248.35 -8 246.7 -8 245 C-6.02 245 -4.04 245 -2 245 C-2.01047363 244.31897217 -2.02094727 243.63794434 -2.03173828 242.9362793 C-2.07328878 239.85339034 -2.09932311 236.77056029 -2.125 233.6875 C-2.14175781 232.61564453 -2.15851562 231.54378906 -2.17578125 230.43945312 C-2.18222656 229.41142578 -2.18867188 228.38339844 -2.1953125 227.32421875 C-2.20578613 226.37635498 -2.21625977 225.42849121 -2.22705078 224.4519043 C-2 222 -2 222 0 219 C-2.31 218.67 -4.62 218.34 -7 218 C-7 219.65 -7 221.3 -7 223 C-14.92 223 -22.84 223 -31 223 C-31 205.51 -31 188.02 -31 170 C-26.71 170 -22.42 170 -18 170 C-18 168.35 -18 166.7 -18 165 C-18.99 165 -19.98 165 -21 165 C-21 161.7 -21 158.4 -21 155 C-20.34 155 -19.68 155 -19 155 C-19 150.71 -19 146.42 -19 142 C-20.98 142 -22.96 142 -25 142 C-25 140.68 -25 139.36 -25 138 C-25.99 138 -26.98 138 -28 138 C-28 135.69 -28 133.38 -28 131 C-27.01 131 -26.02 131 -25 131 C-25 125.72 -25 120.44 -25 115 C-17.74 115 -10.48 115 -3 115 C-3.11962206 109.03671322 -3.24214657 103.07363985 -3.37231445 97.1105957 C-3.41573241 95.08035896 -3.45740226 93.05008408 -3.49731445 91.01977539 C-3.55485146 88.10811849 -3.61859278 85.19665486 -3.68359375 82.28515625 C-3.70030624 81.3716188 -3.71701874 80.45808136 -3.73423767 79.51686096 C-3.4230685 75.43210684 -3.4230685 75.43210684 -5 72 C-5.09823937 70.33570949 -5.12973631 68.66718069 -5.125 67 C-5.12886719 65.63875 -5.12886719 65.63875 -5.1328125 64.25 C-5 62 -5 62 -4 61 C-3.84285346 59.36743242 -3.74914586 57.72864662 -3.68359375 56.08984375 C-3.64169922 55.10048828 -3.59980469 54.11113281 -3.55664062 53.09179688 C-3.51732422 52.05087891 -3.47800781 51.00996094 -3.4375 49.9375 C-3.39431641 48.89271484 -3.35113281 47.84792969 -3.30664062 46.77148438 C-3.20018775 44.18113116 -3.0981724 41.59067814 -3 39 C-3.66 39 -4.32 39 -5 39 C-5 35.7 -5 32.4 -5 29 C-4.34 29 -3.68 29 -3 29 C-3 27.02 -3 25.04 -3 23 C-3.66 23 -4.32 23 -5 23 C-5 19.7 -5 16.4 -5 13 C-4.34 13 -3.68 13 -3 13 C-3 9.37 -3 5.74 -3 2 C-2.01 2 -1.02 2 0 2 C0 1.34 0 0.68 0 0 Z M-4 133 C-3 135 -3 135 -3 135 Z M29 133 C30 135 30 135 30 135 Z " fill="#040303" transform="translate(31,0)"/>
<path d="M0 0 C19.8 0 39.6 0 60 0 C60 3.3 60 6.6 60 10 C58.68 9.67 57.36 9.34 56 9 C56.99 7.02 57.98 5.04 59 3 C57.02 2.67 55.04 2.34 53 2 C52.67 2.66 52.34 3.32 52 4 C52.99 3.67 53.98 3.34 55 3 C55.66 3.33 56.32 3.66 57 4 C54.91225108 8.1976274 52.74166644 12.34926693 50.5625 16.5 C50.12945557 17.3257251 49.69641113 18.1514502 49.25024414 19.00219727 C45.44215199 26.23016151 41.50544433 33.38383491 37.49243164 40.5 C37.05020264 41.29277344 36.60797363 42.08554688 36.15234375 42.90234375 C35.76038818 43.59835693 35.36843262 44.29437012 34.96459961 45.01147461 C33.78942169 47.26092396 33.78942169 47.26092396 33 51 C38.28 51.33 43.56 51.66 49 52 C49 50.35 49 48.7 49 47 C51.64 47 54.28 47 57 47 C57 48.32 57 49.64 57 51 C57.66 51 58.32 51 59 51 C59 53.31 59 55.62 59 58 C60.53720703 57.94779297 60.53720703 57.94779297 62.10546875 57.89453125 C63.46612936 57.86637965 64.8268078 57.83908096 66.1875 57.8125 C67.19780273 57.77479492 67.19780273 57.77479492 68.22851562 57.73632812 C72.71439691 57.67068108 75.50751128 58.14025346 79 61 C82.31922555 65.05844172 82.45892389 68.94591666 82.375 74 C82.38660156 74.69867188 82.39820312 75.39734375 82.41015625 76.1171875 C82.38490923 80.5774947 81.8307791 83.51596419 79 87 C75.40852511 89.80269302 71.09314872 89.2247543 66.75 89.125 C66.00492187 89.11597656 65.25984375 89.10695313 64.4921875 89.09765625 C62.66131941 89.07418358 60.83061762 89.03831525 59 89 C59 90.98 59 92.96 59 95 C51.08 95.495 51.08 95.495 43 96 C43.99 97.485 43.99 97.485 45 99 C45.24050903 100.95524597 45.24050903 100.95524597 45.22705078 103.19604492 C45.22689972 104.03668991 45.22674866 104.8773349 45.22659302 105.74345398 C45.21627045 106.64666885 45.20594788 107.54988373 45.1953125 108.48046875 C45.1924826 109.40845779 45.18965271 110.33644684 45.18673706 111.29255676 C45.17553836 114.25766879 45.15043435 117.22247921 45.125 120.1875 C45.1149698 122.19726126 45.10584402 124.20702726 45.09765625 126.21679688 C45.07730126 131.14474105 45.038152 136.07203275 45 141 C35.1 141 25.2 141 15 141 C15 136.38 15 131.76 15 127 C13.02 127 11.04 127 9 127 C9 125.35 9 123.7 9 122 C10.98 122 12.96 122 15 122 C14.98952637 121.31897217 14.97905273 120.63794434 14.96826172 119.9362793 C14.92671122 116.85339034 14.90067689 113.77056029 14.875 110.6875 C14.84986328 109.0797168 14.84986328 109.0797168 14.82421875 107.43945312 C14.81777344 106.41142578 14.81132812 105.38339844 14.8046875 104.32421875 C14.79421387 103.37635498 14.78374023 102.42849121 14.77294922 101.4519043 C15 99 15 99 17 96 C14.69 95.67 12.38 95.34 10 95 C10 83.12 10 71.24 10 59 C15.28 59 20.56 59 26 59 C26.495 59.495 26.495 59.495 27 60 C27.55790843 49.77167871 24.13446288 42.90795448 18.90234375 34.2578125 C16.88235032 30.79852191 15.07626817 27.28156653 13.3125 23.6875 C11.01853867 19.02207866 8.65869294 14.46660414 6 10 C4.02 10 2.04 10 0 10 C0 6.7 0 3.4 0 0 Z M13 10 C14 12 14 12 14 12 Z M46 10 C47 12 47 12 47 12 Z " fill="#030201" transform="translate(14,123)"/>
<path d="M0 0 C3.09816252 1.54908126 3.66111368 4.1588168 5.125 7.25 C7.52699212 12.22232136 10.11173971 16.94682725 13.0625 21.625 C17.31858657 28.38174444 21.46478742 35.39436227 24 43 C24.66 43 25.32 43 26 43 C26.27424805 42.27949463 26.54849609 41.55898926 26.83105469 40.81665039 C27.97096079 38.06997188 29.26502438 35.53506581 30.703125 32.93359375 C31.23357422 31.97308105 31.76402344 31.01256836 32.31054688 30.02294922 C35.67855446 23.99655184 39.08489993 17.9922566 42.49609375 11.99023438 C43.04910156 11.01505859 43.60210937 10.03988281 44.171875 9.03515625 C44.6678418 8.1625415 45.16380859 7.28992676 45.67480469 6.39086914 C46.84218158 4.28473025 47.94326108 2.16330628 49 0 C49.99 0.33 50.98 0.66 52 1 C49.91225108 5.1976274 47.74166644 9.34926693 45.5625 13.5 C45.12945557 14.3257251 44.69641113 15.1514502 44.25024414 16.00219727 C40.44215199 23.23016151 36.50544433 30.38383491 32.49243164 37.5 C32.05020264 38.29277344 31.60797363 39.08554688 31.15234375 39.90234375 C30.76038818 40.59835693 30.36843262 41.29437012 29.96459961 42.01147461 C27.7347718 46.60827227 27.88169671 51.02473902 27.9375 56.0546875 C27.94128662 56.83385529 27.94507324 57.61302307 27.94897461 58.415802 C27.96527158 61.7393442 27.99336691 65.06276196 28.02050781 68.38623047 C28.03866139 70.81737696 28.05071381 73.24850311 28.0625 75.6796875 C28.07079834 76.42362762 28.07909668 77.16756775 28.08764648 77.93405151 C28.10695572 82.06911236 27.81128684 85.94436432 27 90 C25.68 90 24.36 90 23 90 C22.67 88.02 22.34 86.04 22 84 C16.39 84 10.78 84 5 84 C5 74.76 5 65.52 5 56 C8.9290625 55.9690625 8.9290625 55.9690625 12.9375 55.9375 C13.7637085 55.928396 14.58991699 55.91929199 15.44116211 55.90991211 C17.29433759 55.90276055 19.14749308 55.9497148 21 56 C21.495 56.495 21.495 56.495 22 57 C22.55817731 46.76674934 19.13063461 39.89944351 13.89453125 31.24609375 C11.9178304 27.85921043 10.152965 24.39820558 8.4375 20.875 C5.91666724 15.70757864 3.16486426 10.86380218 -0.03125 6.0859375 C-1 4 -1 4 -0.65625 1.7265625 C-0.4396875 1.15679687 -0.223125 0.58703125 0 0 Z " fill="#212422" transform="translate(19,126)"/>
<path d="M0 0 C3.96 0 7.92 0 12 0 C12 13.2 12 26.4 12 40 C8.37 40 4.74 40 1 40 C0 39 0 39 -0.11352539 35.30639648 C-0.11336624 33.66128708 -0.10766988 32.01617269 -0.09765625 30.37109375 C-0.0962413 29.50686295 -0.09482635 28.64263214 -0.09336853 27.75221252 C-0.08775239 24.98060708 -0.07519719 22.2090812 -0.0625 19.4375 C-0.05748708 17.5631522 -0.05292381 15.68880315 -0.04882812 13.81445312 C-0.03777772 9.20960456 -0.0205023 4.60481579 0 0 Z " fill="#262826" transform="translate(6,177)"/>
<path d="M0 0 C5.28 0 10.56 0 16 0 C16 1.32 16 2.64 16 4 C16.66 4 17.32 4 18 4 C18 11.92 18 19.84 18 28 C12.06 28 6.12 28 0 28 C0 18.76 0 9.52 0 0 Z " fill="#373737" transform="translate(24,182)"/>
<path d="M0 0 C1.32 0 2.64 0 4 0 C5.6875 2.4375 5.6875 2.4375 7 5 C7.33 5.33 7.66 5.66 8 6 C8.08790975 8.29151417 8.10694038 10.58572524 8.09765625 12.87890625 C8.0962413 13.5655687 8.09482635 14.25223114 8.09336853 14.95970154 C8.08775479 17.16067801 8.07520007 19.36155409 8.0625 21.5625 C8.05748676 23.05143083 8.05292355 24.54036324 8.04882812 26.02929688 C8.03778093 29.68623075 8.02050713 33.34310558 8 37 C4.04 37 0.08 37 -4 37 C-4.07418046 32.64009127 -4.12861544 28.28051721 -4.16479492 23.92016602 C-4.17987768 22.43702801 -4.20034689 20.95393456 -4.22631836 19.47094727 C-4.26272616 17.33859255 -4.27973073 15.20682765 -4.29296875 13.07421875 C-4.3086792 11.79119873 -4.32438965 10.50817871 -4.34057617 9.1862793 C-4 6 -4 6 -2.54418945 4.24536133 C-1.77981567 3.62890747 -1.77981567 3.62890747 -1 3 C-0.67 2.01 -0.34 1.02 0 0 Z " fill="#201D1C" transform="translate(42,218)"/>
<path d="M0 0 C19.8 0 39.6 0 60 0 C60 3.3 60 6.6 60 10 C58.68 9.67 57.36 9.34 56 9 C56.99 7.02 57.98 5.04 59 3 C57.02 2.67 55.04 2.34 53 2 C52.34 2.99 51.68 3.98 51 5 C49.1784668 5.38095093 49.1784668 5.38095093 46.94921875 5.38818359 C46.11495361 5.39764008 45.28068848 5.40709656 44.42114258 5.4168396 C43.51904053 5.41076691 42.61693848 5.40469421 41.6875 5.3984375 C40.76283936 5.40130768 39.83817871 5.40417786 38.88549805 5.40713501 C36.92854196 5.40917849 34.97156557 5.40362882 33.01464844 5.39111328 C30.01190707 5.37506364 27.01051179 5.39095237 24.0078125 5.41015625 C22.10937202 5.40817387 20.21093237 5.4043303 18.3125 5.3984375 C16.95934692 5.40754654 16.95934692 5.40754654 15.57885742 5.4168396 C14.74459229 5.40738312 13.91032715 5.39792664 13.05078125 5.38818359 C12.31512939 5.38579681 11.57947754 5.38341003 10.8215332 5.38095093 C9 5 9 5 7 2 C5.02 2.33 3.04 2.66 1 3 C1.99 5.31 2.98 7.62 4 10 C2.68 10 1.36 10 0 10 C0 6.7 0 3.4 0 0 Z " fill="#181819" transform="translate(14,123)"/>
<path d="M0 0 C3.96 0 7.92 0 12 0 C12 0.99 12 1.98 12 3 C8.7 3 5.4 3 2 3 C2 3.99 2 4.98 2 6 C5.3 6 8.6 6 12 6 C12 10.95 12 15.9 12 21 C13.32 21 14.64 21 16 21 C16 21.66 16 22.32 16 23 C10.72 23 5.44 23 0 23 C0 21.02 0 19.04 0 17 C3.3 17 6.6 17 10 17 C10 15.02 10 13.04 10 11 C6.7 11 3.4 11 0 11 C0 7.37 0 3.74 0 0 Z " fill="#3A3B3B" transform="translate(49,187)"/>
<path d="M0 0 C1.32 0 2.64 0 4 0 C8.14352972 6.25968955 9.59672183 10.48130488 9 18 C10.65 18 12.3 18 14 18 C14 19.32 14 20.64 14 22 C9.38 22 4.76 22 0 22 C0 14.74 0 7.48 0 0 Z " fill="#434343" transform="translate(25,152)"/>
<path d="M0 0 C1.48831242 0.00667405 2.97660807 0.01863442 4.46484375 0.03515625 C5.22345703 0.03966797 5.98207031 0.04417969 6.76367188 0.04882812 C8.64326246 0.06064945 10.52281274 0.07858547 12.40234375 0.09765625 C12.40234375 5.04765625 12.40234375 9.99765625 12.40234375 15.09765625 C9.76234375 15.09765625 7.12234375 15.09765625 4.40234375 15.09765625 C4.21671875 14.16953125 4.03109375 13.24140625 3.83984375 12.28515625 C2.29506816 8.85978428 2.01613137 8.57705835 -1.22265625 7.22265625 C-2.33640625 6.85140625 -3.45015625 6.48015625 -4.59765625 6.09765625 C-4.64037725 4.4315372 -4.63829457 2.7638274 -4.59765625 1.09765625 C-3.59765625 0.09765625 -3.59765625 0.09765625 0 0 Z " fill="#5E5E5E" transform="translate(74.59765625,188.90234375)"/>
<path d="M0 0 C1.32 0 2.64 0 4 0 C5.6875 2.4375 5.6875 2.4375 7 5 C7.33 5.33 7.66 5.66 8 6 C8.08651611 7.41570123 8.10704904 8.835595 8.09765625 10.25390625 C8.09443359 11.10791016 8.09121094 11.96191406 8.08789062 12.84179688 C8.07951172 13.73962891 8.07113281 14.63746094 8.0625 15.5625 C8.05798828 16.46419922 8.05347656 17.36589844 8.04882812 18.29492188 C8.03700225 20.53001314 8.0205222 22.76497437 8 25 C7.67 25 7.34 25 7 25 C6.86722656 24.30132812 6.73445313 23.60265625 6.59765625 22.8828125 C6.42105469 21.97273438 6.24445312 21.06265625 6.0625 20.125 C5.88847656 19.22007812 5.71445312 18.31515625 5.53515625 17.3828125 C5.10036299 15.00043683 5.10036299 15.00043683 4 13 C2.68 13 1.36 13 0 13 C-1.91302307 16.26613695 -2.35674661 18.99445248 -2.625 22.75 C-2.69976562 23.73484375 -2.77453125 24.7196875 -2.8515625 25.734375 C-2.92503906 26.85585937 -2.92503906 26.85585937 -3 28 C-3.33 28 -3.66 28 -4 28 C-4.08701039 24.39598519 -4.14039388 20.79223988 -4.1875 17.1875 C-4.21263672 16.16333984 -4.23777344 15.13917969 -4.26367188 14.08398438 C-4.27333984 13.10107422 -4.28300781 12.11816406 -4.29296875 11.10546875 C-4.3086792 10.19949951 -4.32438965 9.29353027 -4.34057617 8.36010742 C-3.93053396 5.51861776 -3.09860769 4.8597148 -1 3 C-0.67 2.01 -0.34 1.02 0 0 Z " fill="#424242" transform="translate(42,218)"/>
<path d="M0 0 C1.98 0.495 1.98 0.495 4 1 C4 4.3 4 7.6 4 11 C6.31 11.33 8.62 11.66 11 12 C11.38218767 13.65614657 11.71395102 15.32457024 12 17 C11 18 11 18 8.27734375 18.09765625 C7.17519531 18.08605469 6.07304688 18.07445312 4.9375 18.0625 C3.83277344 18.05347656 2.72804688 18.04445312 1.58984375 18.03515625 C0.30787109 18.01775391 0.30787109 18.01775391 -1 18 C-1.02684312 15.18743719 -1.04676188 12.37512759 -1.0625 9.5625 C-1.07087891 8.76005859 -1.07925781 7.95761719 -1.08789062 7.13085938 C-1.0965143 5.08704779 -1.0522815 3.04316098 -1 1 C-0.67 0.67 -0.34 0.34 0 0 Z " fill="#3B3B3B" transform="translate(64,187)"/>
<path d="M0 0 C0.99 0 1.98 0 3 0 C3 15.18 3 30.36 3 46 C2.01 46 1.02 46 0 46 C0 30.82 0 15.64 0 0 Z " fill="#373839" transform="translate(49,73)"/>
<path d="M0 0 C0.99 0 1.98 0 3 0 C3 15.18 3 30.36 3 46 C2.01 46 1.02 46 0 46 C0 30.82 0 15.64 0 0 Z " fill="#373839" transform="translate(36,73)"/>
<path d="M0 0 C2.61881031 3.92821547 2.28987737 7.43443139 2 12 C1.01 13.485 1.01 13.485 0 15 C0 13.68 0 12.36 0 11 C-5.28 11 -10.56 11 -16 11 C-16 8.69 -16 6.38 -16 4 C-10.72 4 -5.44 4 0 4 C0 2.68 0 1.36 0 0 Z " fill="#000000" transform="translate(40,171)"/>
<path d="M0 0 C16.5 0 33 0 50 0 C50 0.33 50 0.66 50 1 C37.13 1 24.26 1 11 1 C11 1.99 11 2.98 11 4 C24.2 3.67 37.4 3.34 51 3 C51 3.66 51 4.32 51 5 C45.05520371 5.07401579 39.11067407 5.12853813 33.16552734 5.16479492 C31.14204234 5.17990526 29.1185902 5.20039437 27.09521484 5.22631836 C24.19099835 5.26260328 21.28721385 5.27970355 18.3828125 5.29296875 C17.47443634 5.30845261 16.56606018 5.32393646 15.63015747 5.33988953 C14.36907669 5.34022942 14.36907669 5.34022942 13.08251953 5.34057617 C11.96999313 5.35056892 11.96999313 5.35056892 10.83499146 5.36076355 C10.22944427 5.24171158 9.62389709 5.12265961 9 5 C8.34 4.01 7.68 3.02 7 2 C5.02 2.33 3.04 2.66 1 3 C1.99 5.31 2.98 7.62 4 10 C2.68 10 1.36 10 0 10 C0 6.7 0 3.4 0 0 Z " fill="#424242" transform="translate(14,123)"/>
<path d="M0 0 C3.96 0 7.92 0 12 0 C12 3.3 12 6.6 12 10 C10.68 9.67 9.36 9.34 8 9 C8.99 9 9.98 9 11 9 C11 8.01 11 7.02 11 6 C7.7 6 4.4 6 1 6 C1 8.97 1 11.94 1 15 C1.99 15.33 2.98 15.66 4 16 C3.01 16 2.02 16 1 16 C1 23.59 1 31.18 1 39 C0.67 39 0.34 39 0 39 C0 26.13 0 13.26 0 0 Z " fill="#101010" transform="translate(6,177)"/>
<path d="M0 0 C9.24 0 18.48 0 28 0 C28 1.32 28 2.64 28 4 C18.76 4 9.52 4 0 4 C0 2.68 0 1.36 0 0 Z " fill="#3E3F3F" transform="translate(30,65)"/>
<path d="M0 0 C4.62 0 9.24 0 14 0 C12.30119563 5.09641312 10.69062201 8.51562998 8 13 C7.34 13 6.68 13 6 13 C4.99491199 11.21118264 3.99607264 9.41885304 3 7.625 C2.1646875 6.12839844 2.1646875 6.12839844 1.3125 4.6015625 C0 2 0 2 0 0 Z " fill="#2B2D2B" transform="translate(37,152)"/>
<path d="M0 0 C1.32 0 2.64 0 4 0 C4 7.59 4 15.18 4 23 C2.68 23 1.36 23 0 23 C0 15.41 0 7.82 0 0 Z " fill="#282928" transform="translate(42,38)"/>
<path d="M0 0 C1.65 0 3.3 0 5 0 C5 5.94 5 11.88 5 18 C3.35 18 1.7 18 0 18 C0 12.06 0 6.12 0 0 Z " fill="#1F201E" transform="translate(65,145)"/>
<path d="M0 0 C0.33 0 0.66 0 1 0 C1 3.63 1 7.26 1 11 C4.3 11 7.6 11 11 11 C11 12.98 11 14.96 11 17 C7.7 17 4.4 17 1 17 C1 18.98 1 20.96 1 23 C0.67 23 0.34 23 0 23 C0 15.41 0 7.82 0 0 Z " fill="#272927" transform="translate(48,187)"/>
<path d="M0 0 C0 1.98 0 3.96 0 6 C-4.62 6 -9.24 6 -14 6 C-14.33 5.01 -14.66 4.02 -15 3 C-14.67 2.34 -14.34 1.68 -14 1 C-9.45906828 -0.41904116 -4.7056901 -0.09226843 0 0 Z " fill="#3C3C3C" transform="translate(63,169)"/>
<path d="M0 0 C3.63 0 7.26 0 11 0 C11 1.32 11 2.64 11 4 C12.65 4 14.3 4 16 4 C16 4.66 16 5.32 16 6 C10.72 6 5.44 6 0 6 C0 4.02 0 2.04 0 0 Z " fill="#434343" transform="translate(49,204)"/>
<path d="M0 0 C0.66 0 1.32 0 2 0 C3.5390224 2.55303715 5.05595193 5.11539935 6.5625 7.6875 C7.00013672 8.40873047 7.43777344 9.12996094 7.88867188 9.87304688 C8.29794922 10.57880859 8.70722656 11.28457031 9.12890625 12.01171875 C9.51119385 12.65584717 9.89348145 13.29997559 10.28735352 13.96362305 C11 16 11 16 10 21 C5.05 21 0.1 21 -5 21 C-5 20.67 -5 20.34 -5 20 C-0.38 20 4.24 20 9 20 C9 18.68 9 17.36 9 16 C7.35 16 5.7 16 4 16 C3.96261719 15.40832031 3.92523438 14.81664062 3.88671875 14.20703125 C3.48131892 9.33428431 2.85719103 6.09944801 0 2 C0 1.34 0 0.68 0 0 Z " fill="#121312" transform="translate(30,154)"/>
<path d="M0 0 C0.99 0 1.98 0 3 0 C3 7.59 3 15.18 3 23 C2.01 23 1.02 23 0 23 C0 15.41 0 7.82 0 0 Z " fill="#363738" transform="translate(49,38)"/>
<path d="M0 0 C0.99 0 1.98 0 3 0 C3 7.59 3 15.18 3 23 C2.01 23 1.02 23 0 23 C0 15.41 0 7.82 0 0 Z " fill="#363738" transform="translate(36,38)"/>
<path d="M0 0 C3.63 0 7.26 0 11 0 C11 1.98 11 3.96 11 6 C7.37 6 3.74 6 0 6 C0 4.02 0 2.04 0 0 Z " fill="#0B0C0C" transform="translate(26,191)"/>
<path d="M0 0 C1.32 0 2.64 0 4 0 C4 4.62 4 9.24 4 14 C2.68 14 1.36 14 0 14 C0 9.38 0 4.76 0 0 Z " fill="#747474" transform="translate(83,190)"/>
<path d="M0 0 C3.63 0 7.26 0 11 0 C11 1.65 11 3.3 11 5 C7.37 5 3.74 5 0 5 C0 3.35 0 1.7 0 0 Z " fill="#0C0D0B" transform="translate(26,200)"/>
<path d="M0 0 C4.62 0 9.24 0 14 0 C13.67 1.32 13.34 2.64 13 4 C9.04 4 5.08 4 1 4 C0.67 2.68 0.34 1.36 0 0 Z " fill="#424141" transform="translate(37,152)"/>
<path d="M0 0 C4.95 0 9.9 0 15 0 C15 0.99 15 1.98 15 3 C10.05 3 5.1 3 0 3 C0 2.01 0 1.02 0 0 Z " fill="#444444" transform="translate(24,183)"/>
<path d="M0 0 C5.28 0 10.56 0 16 0 C16 0.66 16 1.32 16 2 C12.53777385 3.06723961 9.35960734 3.10173486 5.75 3.0625 C4.67234375 3.05347656 3.5946875 3.04445312 2.484375 3.03515625 C1.66453125 3.02355469 0.8446875 3.01195312 0 3 C0 2.01 0 1.02 0 0 Z " fill="#3F403F" transform="translate(49,183)"/>
<path d="M0 0 C3.3 0 6.6 0 10 0 C10 1.32 10 2.64 10 4 C6.7 4 3.4 4 0 4 C0 2.68 0 1.36 0 0 Z " fill="#242724" transform="translate(7,177)"/>
<path d="M0 0 C0.66 1.32 1.32 2.64 2 4 C4.64 4 7.28 4 10 4 C10.33 2.68 10.66 1.36 11 0 C11.33 0 11.66 0 12 0 C12 1.98 12 3.96 12 6 C8.04 6 4.08 6 0 6 C0 4.02 0 2.04 0 0 Z " fill="#414141" transform="translate(38,249)"/>
<path d="M0 0 C0.33 0 0.66 0 1 0 C1 3.63 1 7.26 1 11 C-0.65 11 -2.3 11 -4 11 C-3.49172849 6.62886504 -2.54826592 3.61004338 0 0 Z " fill="#393A3A" transform="translate(58,154)"/>
<path d="M0 0 C1.32 0 2.64 0 4 0 C4.99 2.31 5.98 4.62 7 7 C4.69 7 2.38 7 0 7 C0 4.69 0 2.38 0 0 Z " fill="#272825" transform="translate(25,152)"/>
<path d="M0 0 C0.99 0 1.98 0 3 0 C3 3.96 3 7.92 3 12 C2.01 12 1.02 12 0 12 C0 8.04 0 4.08 0 0 Z " fill="#38383A" transform="translate(49,132)"/>
<path d="M0 0 C0.99 0 1.98 0 3 0 C3 3.96 3 7.92 3 12 C2.01 12 1.02 12 0 12 C0 8.04 0 4.08 0 0 Z " fill="#38383A" transform="translate(36,132)"/>
<path d="M0 0 C2.31 0 4.62 0 7 0 C7 1.98 7 3.96 7 6 C4.03 6 1.06 6 -2 6 C-1.67 4.68 -1.34 3.36 -1 2 C-1 2.66 -1 3.32 -1 4 C0.98 4 2.96 4 5 4 C5 3.01 5 2.02 5 1 C3.35 1 1.7 1 0 1 C0 0.67 0 0.34 0 0 Z " fill="#050504" transform="translate(52,198)"/>
<path d="M0 0 C1.98 0 3.96 0 6 0 C6 1.98 6 3.96 6 6 C3.03 5.505 3.03 5.505 0 5 C0 3.35 0 1.7 0 0 Z " fill="#696969" transform="translate(70,190)"/>
<path d="M0 0 C2.31 0.33 4.62 0.66 7 1 C7 1.99 7 2.98 7 4 C5.02 4 3.04 4 1 4 C0.67 2.68 0.34 1.36 0 0 Z " fill="#161815" transform="translate(50,198)"/>
<path d="M0 0 C0.33 0 0.66 0 1 0 C1 3.3 1 6.6 1 10 C-0.32 9.67 -1.64 9.34 -3 9 C-2.01 6.03 -1.02 3.06 0 0 Z " fill="#323230" transform="translate(73,123)"/>
<path d="M0 0 C0.33 0 0.66 0 1 0 C1.99 3.3 2.98 6.6 4 10 C2.68 10 1.36 10 0 10 C0 6.7 0 3.4 0 0 Z " fill="#2D2F2E" transform="translate(14,123)"/>
<path d="M0 0 C1.32 0 2.64 0 4 0 C4.33 1.32 4.66 2.64 5 4 C3.35 4 1.7 4 0 4 C0 2.68 0 1.36 0 0 Z " fill="#404040" transform="translate(25,152)"/>
<path d="M0 0 C0.99 0 1.98 0 3 0 C3 1.98 3 3.96 3 6 C2.01 6 1.02 6 0 6 C0 4.02 0 2.04 0 0 Z " fill="#38383A" transform="translate(49,23)"/>
<path d="M0 0 C0.99 0 1.98 0 3 0 C3 1.98 3 3.96 3 6 C2.01 6 1.02 6 0 6 C0 4.02 0 2.04 0 0 Z " fill="#38383A" transform="translate(36,23)"/>
</svg>
