<?xml version="1.0" encoding="UTF-8"?>
<svg version="1.1" xmlns="http://www.w3.org/2000/svg" width="40" height="266">
<path d="M0 0 C4.29 0 8.58 0 13 0 C13 12.87 13 25.74 13 39 C13.99 39 14.98 39 16 39 C16 41.64 16 44.28 16 47 C16.99 47 17.98 47 19 47 C19.67305018 48.60149886 20.33822227 50.20631029 21 51.8125 C21.37125 52.70582031 21.7425 53.59914062 22.125 54.51953125 C23 57 23 57 23 60 C23.99 60 24.98 60 26 60 C26 71.88 26 83.76 26 96 C25.01 96.33 24.02 96.66 23 97 C23.02094727 98.03817871 23.04189453 99.07635742 23.06347656 100.14599609 C23.13651958 104.04103505 23.18203034 107.93601497 23.21972656 111.83154297 C23.23969699 113.50938131 23.26688332 115.18715136 23.30175781 116.86474609 C23.63214022 133.17980656 23.63214022 133.17980656 19.92626953 140.85449219 C18.30006679 144.62124751 18.36245208 148.38523364 18.3125 152.4375 C18.26971924 153.88600342 18.26971924 153.88600342 18.22607422 155.36376953 C18.12811596 158.90900207 18.06199221 162.4539562 18 166 C17.88276872 172.45849588 17.75708695 178.91679132 17.625 185.375 C17.60765808 186.25748413 17.59031616 187.13996826 17.57244873 188.04919434 C17.04369571 214.06011208 15.48129405 240.02927819 14 266 C8.72 266 3.44 266 -2 266 C-2.4896108 256.89637112 -2.96912057 247.79224484 -3.4375 238.6875 C-3.47242302 238.00872803 -3.50734604 237.32995605 -3.54332733 236.63061523 C-4.60337893 215.95834472 -5.41023163 195.30083869 -5.74797058 174.6023407 C-5.80169387 171.52690712 -5.86873299 168.4519443 -5.94348145 165.37695312 C-5.98276818 163.72470415 -6.01751206 162.07234345 -6.04870605 160.41992188 C-6.24159106 151.24247847 -6.44655193 143.40202307 -10.12695312 134.88818359 C-12.16144588 128.15774476 -11.39992768 120.77635793 -11.25 113.8125 C-11.22989199 112.1764543 -11.21164887 110.54038458 -11.1953125 108.90429688 C-11.15168487 104.93559378 -11.0829006 100.96806902 -11 97 C-11.99 96.67 -12.98 96.34 -14 96 C-14 84.12 -14 72.24 -14 60 C-13.01 60 -12.02 60 -11 60 C-10.79503906 59.22914062 -10.59007812 58.45828125 -10.37890625 57.6640625 C-10.10949219 56.66117188 -9.84007812 55.65828125 -9.5625 54.625 C-9.29566406 53.62726562 -9.02882813 52.62953125 -8.75390625 51.6015625 C-8 49 -8 49 -7 47 C-6.01 47 -5.02 47 -4 47 C-4 44.36 -4 41.72 -4 39 C-2.68 39 -1.36 39 0 39 C0 26.13 0 13.26 0 0 Z " fill="#030201" transform="translate(14,0)"/>
<path d="M0 0 C2.97 0 5.94 0 9 0 C9.94958301 3.79833205 10.13276856 6.74160086 10.14526367 10.6328125 C10.15030159 11.6189151 10.15030159 11.6189151 10.15544128 12.62493896 C10.16491751 14.79164534 10.16689252 16.95827421 10.16796875 19.125 C10.17118294 20.63427767 10.17454714 22.14355502 10.17805481 23.65283203 C10.18403723 26.81348391 10.18589555 29.97410848 10.18530273 33.13476562 C10.185201 37.18339123 10.19886874 41.23184191 10.21607494 45.28042603 C10.22719447 48.39624842 10.22922198 51.51202845 10.22869301 54.62786865 C10.2298726 56.12059127 10.23429321 57.61331501 10.24202538 59.10601807 C10.25182724 61.1931994 10.24894699 63.27999998 10.24291992 65.3671875 C10.24434494 66.55425293 10.24576996 67.74131836 10.24723816 68.96435547 C10.00967028 71.88126618 9.52708647 73.54155664 8 76 C6.02090602 76.02686553 4.04171029 76.04633375 2.0625 76.0625 C0.96035156 76.07410156 -0.14179688 76.08570313 -1.27734375 76.09765625 C-4 76 -4 76 -5 75 C-5.08775605 72.85441173 -5.10695219 70.70595579 -5.09765625 68.55859375 C-5.09443359 67.25341797 -5.09121094 65.94824219 -5.08789062 64.60351562 C-5.07953401 63.2148431 -5.07106905 61.82617123 -5.0625 60.4375 C-5.05748666 59.04492344 -5.05292347 57.65234519 -5.04882812 56.25976562 C-5.03699434 52.8398013 -5.0205088 49.41992156 -5 46 C-3.48046875 47.83984375 -3.48046875 47.83984375 -2 50 C-2.3125 52.5625 -2.3125 52.5625 -3 55 C-3.09403614 58.00740099 -3.09403614 58.00740099 -2.4375 60.9375 C-2.03194619 63.7763767 -2.07883782 65.33886482 -3 68 C-2.0925 67.814375 -1.185 67.62875 -0.25 67.4375 C2.68314324 67.04265379 4.2644657 67.05308428 7 68 C6.814375 67.0925 6.62875 66.185 6.4375 65.25 C6.0330946 62.24584557 6.13007416 60.80309437 7 58 C7 57.01 7 56.02 7 55 C7.15127402 53.43593472 7.31902522 51.87340748 7.5 50.3125 C7.5928125 49.50425781 7.685625 48.69601563 7.78125 47.86328125 C7.8534375 47.24839844 7.925625 46.63351563 8 46 C4.535 46.495 4.535 46.495 1 47 C-0.1577506 43.52674819 -0.06866652 40.63932552 0 37 C2.33333333 37 4.66666667 37 7 37 C6.814375 36.2575 6.62875 35.515 6.4375 34.75 C6.00796892 32.05009037 6.14877026 30.55368923 7 28 C6.278125 28.185625 5.55625 28.37125 4.8125 28.5625 C1.87173027 29.01995307 -0.14103058 28.73516357 -3 28 C-2.773125 28.7425 -2.54625 29.485 -2.3125 30.25 C-2 33 -2 33 -5 37 C-5 27.76 -5 18.52 -5 9 C-4.01 9.99 -3.02 10.98 -2 12 C-1.34 12 -0.68 12 0 12 C0 8.04 0 4.08 0 0 Z " fill="#424344" transform="translate(18,57)"/>
<path d="M0 0 C1.32 0 2.64 0 4 0 C4.77403558 4.06368679 5.0984702 7.86425173 5 12 C3.68 12 2.36 12 1 12 C0.67 11.67 0.34 11.34 0 11 C0 18.59 0 26.18 0 34 C0 31.37886292 0.31292445 29.49064888 1 27 C1.9075 27.185625 2.815 27.37125 3.75 27.5625 C6.68314324 27.95734621 8.2644657 27.94691572 11 27 C12.1004671 30.98919325 12.1004671 34.01080675 11 38 C9.02 37.67 7.04 37.34 5 37 C5 39.97 5 42.94 5 46 C5.78375 45.814375 6.5675 45.62875 7.375 45.4375 C10 45 10 45 12 46 C13.79505679 49.88928972 12.11914953 53.08297664 11 57 C11.30840599 59.15274948 11.30840599 59.15274948 12 61 C12 64.11257569 11.82638376 66.10765685 11 69 C9.63875 68.7215625 9.63875 68.7215625 8.25 68.4375 C5.31685676 68.04265379 3.7355343 68.05308428 1 69 C-0.03841876 65.36553433 -0.27916816 62.24074736 0.5625 58.5 C1.02053229 55.88267263 0.75094644 54.50315479 0 52 C0 51.01 0 50.02 0 49 C-0.33 56.26 -0.66 63.52 -1 71 C-1.33 71 -1.66 71 -2 71 C-2.04638017 62.48103626 -2.08189803 53.96212546 -2.10362434 45.4430666 C-2.1140529 41.48714545 -2.1281951 37.53131082 -2.15087891 33.57543945 C-2.17264046 29.75641723 -2.18457561 25.93747812 -2.18975449 22.11839867 C-2.1934443 20.66277954 -2.20064961 19.20716485 -2.21146011 17.75158119 C-2.22601926 15.70969506 -2.22797612 13.66815055 -2.22705078 11.6262207 C-2.231492 10.46484085 -2.23593323 9.303461 -2.24050903 8.10688782 C-2.00005603 5.00072374 -1.32371596 2.80083349 0 0 Z " fill="#474747" transform="translate(14,57)"/>
<path d="M0 0 C3.3 0 6.6 0 10 0 C10 12.54 10 25.08 10 38 C7.03 38 4.06 38 1 38 C1 37.01 1 36.02 1 35 C1.99 35 2.98 35 4 35 C4 31.04 4 27.08 4 23 C3.01 23 2.02 23 1 23 C-0.2263757 20.54724859 -0.11415314 18.9494219 -0.09765625 16.2109375 C-0.09443359 15.26992187 -0.09121094 14.32890625 -0.08789062 13.359375 C-0.07951172 12.37453125 -0.07113281 11.3896875 -0.0625 10.375 C-0.05798828 9.38242188 -0.05347656 8.38984375 -0.04882812 7.3671875 C-0.03702161 4.91143278 -0.01908582 2.45570894 0 0 Z " fill="#292A2C" transform="translate(15,143)"/>
<path d="M0 0 C2.64 0 5.28 0 8 0 C8 11.55 8 23.1 8 35 C5.36 35 2.72 35 0 35 C0 23.45 0 11.9 0 0 Z " fill="#3B3B3B" transform="translate(16,187)"/>
<path d="M0 0 C1.51953125 1.83984375 1.51953125 1.83984375 3 4 C2.6875 6.5625 2.6875 6.5625 2 9 C1.90596386 12.00740099 1.90596386 12.00740099 2.5625 14.9375 C2.96805381 17.7763767 2.92116218 19.33886482 2 22 C2.9075 21.814375 3.815 21.62875 4.75 21.4375 C7.68314324 21.04265379 9.2644657 21.05308428 12 22 C11.814375 21.0925 11.62875 20.185 11.4375 19.25 C11.0330946 16.24584557 11.13007416 14.80309437 12 12 C12 11.01 12 10.02 12 9 C12.31088368 7.32900023 12.64080332 5.66128463 13 4 C13.33 4 13.66 4 14 4 C14.02886751 8.14581887 14.04675327 12.29161216 14.0625 16.4375 C14.07087891 17.62150391 14.07925781 18.80550781 14.08789062 20.02539062 C14.09111328 21.15009766 14.09433594 22.27480469 14.09765625 23.43359375 C14.10289307 24.47572021 14.10812988 25.51784668 14.11352539 26.59155273 C14 29 14 29 13 30 C11.00200428 30.09873816 9.00042842 30.12971799 7 30.125 C5.906875 30.12757813 4.81375 30.13015625 3.6875 30.1328125 C1 30 1 30 0 29 C-0.08775605 26.85441173 -0.10695219 24.70595579 -0.09765625 22.55859375 C-0.09443359 21.25341797 -0.09121094 19.94824219 -0.08789062 18.60351562 C-0.07953401 17.2148431 -0.07106905 15.82617123 -0.0625 14.4375 C-0.05748666 13.04492344 -0.05292347 11.65234519 -0.04882812 10.25976562 C-0.03699434 6.8398013 -0.0205088 3.41992156 0 0 Z " fill="#636363" transform="translate(13,103)"/>
<path d="M0 0 C0.9075 0.185625 1.815 0.37125 2.75 0.5625 C5.68314324 0.95734621 7.2644657 0.94691572 10 0 C11.1004671 3.98919325 11.1004671 7.01080675 10 11 C9.0925 10.814375 8.185 10.62875 7.25 10.4375 C4.31685676 10.04265379 2.7355343 10.05308428 0 11 C-1.1004671 7.01080675 -1.1004671 3.98919325 0 0 Z " fill="#5B5B5B" transform="translate(15,84)"/>
<path d="M0 0 C0.33 0 0.66 0 1 0 C1 8.25 1 16.5 1 25 C-2 21 -2 21 -1.6875 18.25 C-1.460625 17.5075 -1.23375 16.765 -1 16 C-1.721875 16.185625 -2.44375 16.37125 -3.1875 16.5625 C-6.12826973 17.01995307 -8.14103058 16.73516357 -11 16 C-10.773125 16.7425 -10.54625 17.485 -10.3125 18.25 C-10 21 -10 21 -13 25 C-13 17.74 -13 10.48 -13 3 C-10 7 -10 7 -10.3125 9.75 C-10.539375 10.4925 -10.76625 11.235 -11 12 C-9.63875 11.7215625 -9.63875 11.7215625 -8.25 11.4375 C-5.31685676 11.04265379 -3.7355343 11.05308428 -1 12 C-1.185625 11.2575 -1.37125 10.515 -1.5625 9.75 C-2.16647243 5.95360188 -1.19959266 3.59877798 0 0 Z M-4 26 C-1 27 -1 27 -1 27 Z " fill="#656565" transform="translate(26,69)"/>
<path d="M0 0 C0.8971875 0.309375 0.8971875 0.309375 1.8125 0.625 C3.27976798 4.43989674 2.24586419 6.91511622 0.8125 10.625 C-0.5075 10.295 -1.8275 9.965 -3.1875 9.625 C-3.1875 8.965 -3.1875 8.305 -3.1875 7.625 C-3.8475 7.625 -4.5075 7.625 -5.1875 7.625 C-5.1875 8.615 -5.1875 9.605 -5.1875 10.625 C-6.8375 10.295 -8.4875 9.965 -10.1875 9.625 C-9.8575 8.305 -9.5275 6.985 -9.1875 5.625 C-7.8675 5.295 -6.5475 4.965 -5.1875 4.625 C-5.1875 3.635 -5.1875 2.645 -5.1875 1.625 C-2.1875 -0.375 -2.1875 -0.375 0 0 Z " fill="#5D5C5C" transform="translate(24.1875,102.375)"/>
<path d="M0 0 C0.99 0.33 1.98 0.66 3 1 C3 1.66 3 2.32 3 3 C4.65 2.34 6.3 1.68 8 1 C8 4.96 8 8.92 8 13 C7.67 12.01 7.34 11.02 7 10 C4.69 10.33 2.38 10.66 0 11 C-1.16461426 7.50615721 -1.13568319 4.66344611 -1 1 C-0.67 0.67 -0.34 0.34 0 0 Z " fill="#626262" transform="translate(19,93)"/>
<path d="M0 0 C2 0 2 0 4.6875 2.25 C7 5 7 5 6.8125 7.3125 C6.544375 7.869375 6.27625 8.42625 6 9 C5.278125 8.814375 4.55625 8.62875 3.8125 8.4375 C0.87173027 7.98004693 -1.14103058 8.26483643 -4 9 C-4.625 7.125 -4.625 7.125 -5 5 C-4.34 4.34 -3.68 3.68 -3 3 C-2.01 3 -1.02 3 0 3 C0 2.01 0 1.02 0 0 Z " fill="#5B5B5B" transform="translate(19,73)"/>
<path d="M0 0 C0.33 0 0.66 0 1 0 C1.02886751 4.14581887 1.04675327 8.29161216 1.0625 12.4375 C1.07087891 13.62150391 1.07925781 14.80550781 1.08789062 16.02539062 C1.09111328 17.15009766 1.09433594 18.27480469 1.09765625 19.43359375 C1.10289307 20.47572021 1.10812988 21.51784668 1.11352539 22.59155273 C1 25 1 25 0 26 C-2.01964199 26.07244053 -4.04167124 26.08377188 -6.0625 26.0625 C-7.16722656 26.05347656 -8.27195312 26.04445312 -9.41015625 26.03515625 C-10.69212891 26.01775391 -10.69212891 26.01775391 -12 26 C-11.67 25.34 -11.34 24.68 -11 24 C-7.35526801 23.10906551 -4.57257469 22.76333953 -1 24 C-1.185625 23.2575 -1.37125 22.515 -1.5625 21.75 C-2.00347278 18.97817108 -1.76476401 17.63418715 -1 15 C-0.8303378 11.2354063 -0.8303378 11.2354063 -1.625 8.625 C-2.10240107 5.28319253 -1.22628839 3.10178829 0 0 Z " fill="#646464" transform="translate(26,107)"/>
<path d="M0 0 C0.33 0.66 0.66 1.32 1 2 C1.99 2 2.98 2 4 2 C4 5.96 4 9.92 4 14 C3.01 14 2.02 14 1 14 C0.67 14.99 0.34 15.98 0 17 C0 11.39 0 5.78 0 0 Z " fill="#111112" transform="translate(15,164)"/>
<path d="M0 0 C2.31 0 4.62 0 7 0 C5.02 0.99 5.02 0.99 3 2 C3.33 3.98 3.66 5.96 4 8 C2.68 8 1.36 8 0 8 C0 5.36 0 2.72 0 0 Z " fill="#636363" transform="translate(18,57)"/>
<path d="M0 0 C3 4 3 4 2.6875 6.5625 C2.460625 7.366875 2.23375 8.17125 2 9 C2 9.99 2 10.98 2 12 C1.34 13.32 0.68 14.64 0 16 C0 10.72 0 5.44 0 0 Z " fill="#656565" transform="translate(13,103)"/>
<path d="M0 0 C0.86625 0.556875 0.86625 0.556875 1.75 1.125 C1.75 1.785 1.75 2.445 1.75 3.125 C0 4.25 0 4.25 -2.25 5.125 C-4.5 4.25 -4.5 4.25 -6.25 3.125 C-6.25 2.465 -6.25 1.805 -6.25 1.125 C-2.80384615 -1.09038462 -2.80384615 -1.09038462 0 0 Z " fill="#5C5C5C" transform="translate(22.25,80.875)"/>
<path d="M0 0 C1.32 0 2.64 0 4 0 C3.67 1.65 3.34 3.3 3 5 C1.68 4.67 0.36 4.34 -1 4 C-0.67 2.68 -0.34 1.36 0 0 Z " fill="#0A0B0B" transform="translate(15,127)"/>
<path d="M0 0 C1.32 0 2.64 0 4 0 C3.67 1.65 3.34 3.3 3 5 C1.68 4.67 0.36 4.34 -1 4 C-0.67 2.68 -0.34 1.36 0 0 Z " fill="#0A0B0B" transform="translate(15,121)"/>
<path d="M0 0 C1.98 0.495 1.98 0.495 4 1 C4 2.32 4 3.64 4 5 C2.35 4.67 0.7 4.34 -1 4 C-0.67 2.68 -0.34 1.36 0 0 Z " fill="#0A0A0B" transform="translate(15,114)"/>
<path d="M0 0 C1.98 0.495 1.98 0.495 4 1 C4 2.32 4 3.64 4 5 C2.35 4.67 0.7 4.34 -1 4 C-0.67 2.68 -0.34 1.36 0 0 Z " fill="#0A0A0B" transform="translate(15,108)"/>
<path d="M0 0 C1.98 0.495 1.98 0.495 4 1 C3.67 2.32 3.34 3.64 3 5 C1.68 5 0.36 5 -1 5 C-0.67 3.35 -0.34 1.7 0 0 Z " fill="#0A0A0A" transform="translate(22,96)"/>
<path d="M0 0 C1.32 0 2.64 0 4 0 C3.67 1.65 3.34 3.3 3 5 C1.68 4.67 0.36 4.34 -1 4 C-0.67 2.68 -0.34 1.36 0 0 Z " fill="#0A0B0B" transform="translate(15,90)"/>
<path d="M0 0 C1.32 0 2.64 0 4 0 C3.67 1.65 3.34 3.3 3 5 C1.68 4.67 0.36 4.34 -1 4 C-0.67 2.68 -0.34 1.36 0 0 Z " fill="#0A0B0B" transform="translate(15,84)"/>
<path d="M0 0 C1.98 0.495 1.98 0.495 4 1 C4 2.32 4 3.64 4 5 C2.35 4.67 0.7 4.34 -1 4 C-0.67 2.68 -0.34 1.36 0 0 Z " fill="#090A0A" transform="translate(15,77)"/>
<path d="M0 0 C1.98 0.495 1.98 0.495 4 1 C4 2.32 4 3.64 4 5 C2.35 4.67 0.7 4.34 -1 4 C-0.67 2.68 -0.34 1.36 0 0 Z " fill="#090A0A" transform="translate(15,71)"/>
<path d="M0 0 C1.98 0.495 1.98 0.495 4 1 C3.67 2.32 3.34 3.64 3 5 C1.68 4.67 0.36 4.34 -1 4 C-0.67 2.68 -0.34 1.36 0 0 Z " fill="#080909" transform="translate(22,127)"/>
<path d="M0 0 C2.6875 0.875 2.6875 0.875 5 2 C3.625 4 3.625 4 2 6 C1.34 6 0.68 6 0 6 C0 5.01 0 4.02 0 3 C-0.99 2.67 -1.98 2.34 -3 2 C-2.01 1.34 -1.02 0.68 0 0 Z " fill="#5C5C5C" transform="translate(19,124)"/>
<path d="M0 0 C1.98 0.495 1.98 0.495 4 1 C3.67 2.32 3.34 3.64 3 5 C1.68 4.67 0.36 4.34 -1 4 C-0.67 2.68 -0.34 1.36 0 0 Z " fill="#080909" transform="translate(22,121)"/>
<path d="M0 0 C1.98 0.495 1.98 0.495 4 1 C3.67 2.32 3.34 3.64 3 5 C1.68 4.67 0.36 4.34 -1 4 C-0.67 2.68 -0.34 1.36 0 0 Z " fill="#070707" transform="translate(22,114)"/>
<path d="M0 0 C1.98 0.495 1.98 0.495 4 1 C3.67 2.32 3.34 3.64 3 5 C1.68 4.67 0.36 4.34 -1 4 C-0.67 2.68 -0.34 1.36 0 0 Z " fill="#070707" transform="translate(22,108)"/>
<path d="M0 0 C1.98 0.495 1.98 0.495 4 1 C3.67 2.32 3.34 3.64 3 5 C1.68 5 0.36 5 -1 5 C-0.67 3.35 -0.34 1.7 0 0 Z " fill="#080808" transform="translate(22,102)"/>
<path d="M0 0 C1.98 0.495 1.98 0.495 4 1 C3.67 2.32 3.34 3.64 3 5 C1.68 4.67 0.36 4.34 -1 4 C-0.67 2.68 -0.34 1.36 0 0 Z " fill="#080808" transform="translate(22,90)"/>
<path d="M0 0 C1.98 0.495 1.98 0.495 4 1 C3.67 2.32 3.34 3.64 3 5 C1.68 4.67 0.36 4.34 -1 4 C-0.67 2.68 -0.34 1.36 0 0 Z " fill="#080808" transform="translate(22,84)"/>
<path d="M0 0 C1.98 0.495 1.98 0.495 4 1 C3.67 2.32 3.34 3.64 3 5 C1.68 4.67 0.36 4.34 -1 4 C-0.67 2.68 -0.34 1.36 0 0 Z " fill="#070707" transform="translate(22,77)"/>
<path d="M0 0 C1.98 0.495 1.98 0.495 4 1 C3.67 2.32 3.34 3.64 3 5 C1.68 4.67 0.36 4.34 -1 4 C-0.67 2.68 -0.34 1.36 0 0 Z " fill="#070707" transform="translate(22,71)"/>
<path d="M0 0 C2.475 0.495 2.475 0.495 5 1 C4.67 2.32 4.34 3.64 4 5 C2.68 4.67 1.36 4.34 0 4 C0 2.68 0 1.36 0 0 Z " fill="#090A0A" transform="translate(21,65)"/>
<path d="M0 0 C0.99 0.33 1.98 0.66 3 1 C3 2.32 3 3.64 3 5 C1.35 4.67 -0.3 4.34 -2 4 C-1.34 2.68 -0.68 1.36 0 0 Z " fill="#060707" transform="translate(16,102)"/>
<path d="M0 0 C0.99 0.33 1.98 0.66 3 1 C3 2.32 3 3.64 3 5 C1.35 4.67 -0.3 4.34 -2 4 C-1.34 2.68 -0.68 1.36 0 0 Z " fill="#060707" transform="translate(16,96)"/>
<path d="M0 0 C1.32 0 2.64 0 4 0 C3.67 1.65 3.34 3.3 3 5 C1.68 4.34 0.36 3.68 -1 3 C-0.67 2.01 -0.34 1.02 0 0 Z " fill="#060707" transform="translate(15,65)"/>
<path d="M0 0 C1.32 0 2.64 0 4 0 C3.67 1.65 3.34 3.3 3 5 C1.68 4.34 0.36 3.68 -1 3 C-0.67 2.01 -0.34 1.02 0 0 Z " fill="#060707" transform="translate(15,59)"/>
<path d="M0 0 C2.475 0.495 2.475 0.495 5 1 C4.34 2.32 3.68 3.64 3 5 C2.01 4.67 1.02 4.34 0 4 C0 2.68 0 1.36 0 0 Z " fill="#040505" transform="translate(21,59)"/>
<path d="M0 0 C0.125 2.875 0.125 2.875 0 6 C-0.66 6.66 -1.32 7.32 -2 8 C-2.99 8 -3.98 8 -5 8 C-4 6 -4 6 -2 5 C-2 4.34 -2 3.68 -2 3 C-2.66 2.34 -3.32 1.68 -4 1 C-2 0 -2 0 0 0 Z " fill="#525252" transform="translate(27,57)"/>
</svg>
